# xmcd CD database file
#
# Track frame offsets:
#	150
#	11300
#	37159
#	63029
#	85874
#	116363
#	139979
#	166606
#	185658
#	213323
#	237693
#
# Disc length: 3533 seconds
#
# Revision: 2
# Processed by: cddbd v1.5.2PL0 Copyright (c) Steve Scherf et al.
# Submitted via: CDex 1.84
#
DISCID=8f0dcb0b
DTITLE=Sarah McKenzie - Close Your Eyes
DYEAR=2012
DGENRE=Jazz
TTITLE0=Close Your Eyes
TTITLE1=Too Young
TTITLE2=The Way You Look Tonight
TTITLE3=The Lovers' Tune
TTITLE4=Big Yellow Taxi
TTITLE5=Got To Be This Way
TTITLE6=I Remember You
TTITLE7=Dont Get Around Much Anymore
TTITLE8=At Last
TTITLE9=Blue Skies
TTITLE10=I Should Care
EXTD=YEAR: 2012
EXTT0=
EXTT1=
EXTT2=
EXTT3=
EXTT4=
EXTT5=
EXTT6=
EXTT7=
EXTT8=
EXTT9=
EXTT10=
PLAYORDER=
